<mxfile host="app.diagrams.net" modified="2023-06-21T12:51:47.195Z" agent="Mozilla/5.0 (Macintosh; Intel Mac OS X 10_15_7) AppleWebKit/537.36 (KHTML, like Gecko) Chrome/114.0.0.0 Safari/537.36" etag="ufSMziZY60J7MdwVMqAa" version="21.4.0" type="device">
  <diagram name="Strona-1" id="y8fOKPY7-4U3fERq27Mj">
    <mxGraphModel dx="954" dy="648" grid="1" gridSize="10" guides="1" tooltips="1" connect="1" arrows="1" fold="1" page="1" pageScale="1" pageWidth="827" pageHeight="1169" math="0" shadow="0">
      <root>
        <mxCell id="0" />
        <mxCell id="1" parent="0" />
        <mxCell id="X-eRbGDilC5veR9tW8Js-4" value="&lt;b style=&quot;font-weight:normal;&quot; id=&quot;docs-internal-guid-d59af04e-7fff-6fb4-d87c-6783514afb04&quot;&gt;&lt;img width=&quot;830px;&quot; height=&quot;403px;&quot; src=&quot;https://lh3.googleusercontent.com/ahOinqrfP0itGuSczCpoahVkyl1ijZKQcGnf0_mHRvCeAmZUo-hUhp10NqwIiJ5OCYkOAp08A81mswA116MzWfmUicgohF3LjEgQxGe2mF8AJWrsrHBPIGiSi3e0jptp7JiN_onGfnqXCf7jUIa43eb-cA=s2048&quot;&gt;&lt;/b&gt;" style="text;whiteSpace=wrap;html=1;" vertex="1" parent="1">
          <mxGeometry x="280" y="200" width="820" height="430" as="geometry" />
        </mxCell>
        <mxCell id="X-eRbGDilC5veR9tW8Js-2" value="" style="ellipse;whiteSpace=wrap;html=1;" vertex="1" parent="1">
          <mxGeometry x="270" y="30" width="80" height="80" as="geometry" />
        </mxCell>
        <mxCell id="X-eRbGDilC5veR9tW8Js-1" value="&lt;font style=&quot;&quot;&gt;Operator1&lt;br&gt;&lt;font style=&quot;font-size: 10px;&quot;&gt;turn_to(s1,g1,g0)&lt;br&gt;&lt;/font&gt;[1]&lt;br&gt;&lt;/font&gt;" style="ellipse;whiteSpace=wrap;html=1;fillColor=#d5e8d4;strokeColor=#82b366;" vertex="1" parent="1">
          <mxGeometry x="357" y="506" width="82" height="83" as="geometry" />
        </mxCell>
        <mxCell id="X-eRbGDilC5veR9tW8Js-5" value="&lt;font style=&quot;&quot;&gt;&lt;font style=&quot;font-size: 12px;&quot;&gt;Value6&lt;/font&gt;&lt;br&gt;&lt;span style=&quot;font-size: 10px;&quot;&gt;power_avail(s1)&lt;/span&gt;&lt;br&gt;&lt;span style=&quot;font-size: 10px;&quot;&gt;[1,0]&lt;/span&gt;&lt;br&gt;&lt;/font&gt;" style="ellipse;whiteSpace=wrap;html=1;fillColor=#e1d5e7;strokeColor=#9673a6;" vertex="1" parent="1">
          <mxGeometry x="747" y="375.5" width="82" height="83" as="geometry" />
        </mxCell>
        <mxCell id="X-eRbGDilC5veR9tW8Js-6" value="&lt;font style=&quot;&quot;&gt;&lt;font style=&quot;font-size: 12px;&quot;&gt;Value7&lt;/font&gt;&lt;br&gt;&lt;span style=&quot;font-size: 10px;&quot;&gt;&lt;b&gt;!&lt;/b&gt;power_avail(s1)&lt;/span&gt;&lt;br&gt;&lt;span style=&quot;font-size: 10px;&quot;&gt;[0,0]&lt;/span&gt;&lt;br&gt;&lt;/font&gt;" style="ellipse;whiteSpace=wrap;html=1;fillColor=#fff2cc;strokeColor=#d6b656;" vertex="1" parent="1">
          <mxGeometry x="833" y="375.5" width="82" height="83" as="geometry" />
        </mxCell>
        <mxCell id="X-eRbGDilC5veR9tW8Js-7" value="&lt;font style=&quot;&quot;&gt;&lt;font style=&quot;font-size: 12px;&quot;&gt;Operator2&lt;/font&gt;&lt;br&gt;&lt;span style=&quot;font-size: 10px;&quot;&gt;turn_to(s1,p1,g1)&lt;/span&gt;&lt;br&gt;&lt;span style=&quot;font-size: 10px;&quot;&gt;[0]&lt;/span&gt;&lt;br&gt;&lt;/font&gt;" style="ellipse;whiteSpace=wrap;html=1;fillColor=#f8cecc;strokeColor=#b85450;" vertex="1" parent="1">
          <mxGeometry x="457" y="506" width="82" height="83" as="geometry" />
        </mxCell>
      </root>
    </mxGraphModel>
  </diagram>
</mxfile>
